<svg xmlns="http://www.w3.org/2000/svg" width="24" height="24" viewBox="0 0 24 24" role="img"><path d="M11.99922.29632A12.00114,12.00114,0,0,0,8.20693,23.683c.6.11006.819-.26041.819-.57843,0-.28487-.01039-1.03951-.01621-2.04094-3.338.72518-4.04232-1.60859-4.04232-1.60859a3.17772,3.17772,0,0,0-1.33234-1.75533c-1.08953-.74455.08243-.72945.08243-.72945a2.52067,2.52067,0,0,1,1.83806,1.23665,2.555,2.555,0,0,0,3.49232.99708,2.564,2.564,0,0,1,.76186-1.60424c-2.66468-.30284-5.466-1.33234-5.466-5.93077A4.63844,4.63844,0,0,1,5.57894,8.449a4.31611,4.31611,0,0,1,.11765-3.17578s1.00754-.32266,3.29991,1.23016a11.37418,11.37418,0,0,1,6.00842,0c2.291-1.55282,3.29667-1.23016,3.29667-1.23016A4.3101,4.3101,0,0,1,18.421,8.449,4.63057,4.63057,0,0,1,19.65446,11.669c0,4.60992-2.80568,5.62432-5.479,5.92141a2.864,2.864,0,0,1,.81468,2.22223c0,1.60424-.01473,2.8985-.01473,3.292,0,.32089.21614.69424.82514.577A12.00179,12.00179,0,0,0,11.99922.29632Z"/></svg>
